PathFileType	4	(X/Y/Z)	C:/Users/opensim2020/Desktop/walking_exp_matlab/subject03_walking05_straight_03.trc																																																																																																																																					
DataRate	CameraRate	NumFrames	NumMarkers	Units	OrigDataRate	OrigDataStartFrame	OrigNumFrames																																																																																																																																	
100	100	6	45	mm	100	2184	293																																																																																																																																	
Frame#	Time	LFHD			RFHD			LBHD			RBHD			C7			T10			CLAV			STRN			RBAK			LSHO			LUPA			LELB			LFRM			LWRA			LWRB			LFIN			RSHO			RUPA			RELB			RFRM			RWRA			RWRB			RFIN			LASI			RASI			LPSI			RPSI			LTHI			LKNE			LTIB			LANK			LHEE			LTOE			RTHI			RKNE			RTIB			RANK			RHEE			RTOE			*39			*40			*41			*42			*43			*44		
		X1	Y1	Z1	X2	Y2	Z2	X3	Y3	Z3	X4	Y4	Z4	X5	Y5	Z5	X6	Y6	Z6	X7	Y7	Z7	X8	Y8	Z8	X9	Y9	Z9	X10	Y10	Z10	X11	Y11	Z11	X12	Y12	Z12	X13	Y13	Z13	X14	Y14	Z14	X15	Y15	Z15	X16	Y16	Z16	X17	Y17	Z17	X18	Y18	Z18	X19	Y19	Z19	X20	Y20	Z20	X21	Y21	Z21	X22	Y22	Z22	X23	Y23	Z23	X24	Y24	Z24	X25	Y25	Z25	X26	Y26	Z26	X27	Y27	Z27	X28	Y28	Z28	X29	Y29	Z29	X30	Y30	Z30	X31	Y31	Z31	X32	Y32	Z32	X33	Y33	Z33	X34	Y34	Z34	X35	Y35	Z35	X36	Y36	Z36	X37	Y37	Z37	X38	Y38	Z38	X39	Y39	Z39	X40	Y40	Z40	X41	Y41	Z41	X42	Y42	Z42	X43	Y43	Z43	X44	Y44	Z44	X45	Y45	Z45
																																																																																																																																								
74	0.73	-895.90405	1612.3678	-1058.7478	-905.20544	1620.63037	-925.9472	-1023.6283	1568.04773	-1061.40356	-1028.66602	1576.43762	-930.2583	-1056.08118	1414.3363	-993.45166	-1106.073	1104.90601	-995.1947	-937.26379	1333.47034	-995.24731	-900.284	1166.26294	-1000.67358	-1110.52222	1242.82837	-891.68225	-985.55023	1373.58679	-1151.0177	-1024.39099	1180.1134	-1227.57739	-1033.45569	1057.78772	-1244.06421	-1017.0332	928.69556	-1246.79944	-1005.32495	808.94525	-1219.19177	-1029.61169	816.73901	-1268.62573	-1017.13177	733.20972	-1261.4613	-975.70892	1360.21008	-835.45581	-933.62463	1149.62366	-748.38092	-891.07275	1047.21667	-727.93292	-836.20117	922.17853	-718.80298	-781.2489	838.12994	-751.1073	-807.07733	826.56482	-705.52808	-762.55109	767.60889	-711.58972	-947.48907	932.64966	-1110.37244	-953.79498	930.82764	-874.99115	-1110.54285	957.57916	-1069.13159	-1110.80298	972.16595	-919.39777	-929.42462	638.78009	-1166.05139	-860.98486	475.38492	-1127.75891	-898.41602	280.45435	-1123.97522	-904.62567	71.11685	-1080.69543	-942.62433	33.73314	-1041.02039	-759.49969	45.1713	-1058.68188	-1052.41382	644.63959	-839.263	-1074.53076	467.06467	-874.28564	-1155.20251	291.60199	-874.23181	-1213.57776	81.76953	-925.53528	-1257.33411	55.09863	-979.04742	-1074.48218	30.19075	-933.45276	-982.71735	1673.2229	-1013.34326	NaN	NaN	NaN	NaN	NaN	NaN	NaN	NaN	NaN	NaN	NaN	NaN	NaN	NaN	NaN
75	0.74	-887.578	1611.11169	-1059.20349	-896.67871	1619.62756	-926.37402	-1015.28973	1566.77771	-1061.62195	-1020.03735	1575.32275	-930.43701	-1047.61682	1413.44958	-993.44586	-1098.33948	1104.06689	-995.6554	-929.01428	1332.2522	-995.46454	-892.62396	1164.88098	-1000.76477	-1102.38379	1242.2804	-891.56415	-977.33191	1372.32043	-1151.14172	-1017.51581	1178.86597	-1226.6991	-1027.30054	1056.67493	-1243.23254	-1011.38165	927.51129	-1246.03333	-999.97577	807.67664	-1218.30127	-1024.56458	815.66345	-1267.69519	-1012.35651	732.00305	-1260.51135	-966.95313	1359.23267	-835.73334	-924.15985	1149.08423	-748.44165	-881.17255	1046.86987	-727.98712	-825.13177	922.37598	-719.31458	-769.62677	838.90405	-751.86102	-795.11517	826.97235	-706.28314	-749.90448	768.73096	-712.5246	-939.0968	931.38214	-1110.57166	-946.18176	930.06757	-875.00696	-1102.38086	956.19049	-1069.81262	-1103.1925	970.95721	-920.04523	-923.37311	636.1203	-1164.98657	-854.43671	473.13193	-1125.85474	-882.62378	278.92593	-1123.19983	-877.99908	69.1949	-1081.19641	-914.55731	31.18276	-1042.45947	-731.67273	45.63442	-1059.19055	-1046.3075	644.27039	-839.26917	-1069.61072	466.7356	-874.14282	-1152.25793	292.05139	-874.18024	-1213.05139	82.84427	-925.36279	-1257.10059	56.6848	-979.00214	-1074.33667	30.13182	-933.32111	-974.15356	1672.14856	-1014.07379	NaN	NaN	NaN	NaN	NaN	NaN	NaN	NaN	NaN	NaN	NaN	NaN	NaN	NaN	NaN
76	0.75	-879.1499	1609.88062	-1059.79602	-888.00635	1618.51086	-926.927	-1006.84583	1565.43481	-1061.89783	-1011.34192	1574.10205	-930.70392	-1039.12415	1412.5188	-993.58563	-1090.45801	1103.08203	-996.21228	-920.729	1330.83691	-995.68896	-884.75	1163.43616	-1000.81744	-1094.26563	1241.59326	-891.60101	-968.90448	1371.02185	-1151.38794	-1010.48065	1177.72571	-1226.29004	-1020.94104	1055.5127	-1242.55615	-1005.47272	926.22125	-1245.28613	-994.30212	806.41553	-1217.49109	-1019.29395	814.43262	-1266.68372	-1007.41345	730.74414	-1259.60425	-958.34143	1358.19141	-835.98346	-914.77075	1148.32996	-748.64722	-871.34534	1046.3728	-728.22656	-814.20575	922.29749	-720.26306	-758.13354	839.45898	-752.74908	-783.41193	827.19922	-707.25739	-737.61511	769.47809	-713.63428	-930.51306	930.14703	-1110.76831	-938.52704	929.20349	-875.01294	-1093.94446	954.75861	-1070.57153	-1095.40112	969.78845	-920.80634	-916.29016	634.2912	-1164.85632	-847.07623	471.72968	-1124.29016	-867.44904	277.49368	-1122.45801	-852.00049	68.05366	-1081.63953	-887.80591	30.13299	-1042.10657	-704.74323	46.24376	-1060.21216	-1040.1084	643.83252	-839.21149	-1064.60754	466.41516	-873.86774	-1149.21606	292.53424	-874.00684	-1212.37891	83.86262	-925.21948	-1256.72449	58.19283	-978.89325	-1074.25134	30.22982	-932.99786	-965.84857	1670.80774	-1014.36017	NaN	NaN	NaN	NaN	NaN	NaN	NaN	NaN	NaN	NaN	NaN	NaN	NaN	NaN	NaN
77	0.76	-870.66638	1608.55042	-1060.30579	-879.32855	1617.245	-927.45782	-998.33624	1564.03809	-1062.26306	-1002.60907	1572.77307	-931.07349	-1030.51721	1411.36194	-993.81055	-1082.35364	1102.03625	-996.86914	-912.39319	1329.34534	-995.80273	-876.76831	1161.89417	-1000.86432	-1086.23083	1240.84326	-891.80951	-960.43311	1369.69324	-1151.59131	-1003.0647	1176.3396	-1225.77466	-1014.37469	1054.20374	-1241.75708	-999.34052	924.82135	-1244.51245	-988.3114	804.97119	-1216.69751	-1013.93054	812.90881	-1265.44189	-1002.38031	729.36322	-1258.49414	-949.64368	1357.04724	-836.28375	-905.47937	1147.47729	-748.92596	-861.68805	1045.69226	-728.6181	-803.70288	922.01947	-721.00397	-746.97339	839.76459	-754.00995	-772.08276	827.16437	-708.39075	-725.61334	770.00714	-714.97321	-921.75134	928.79346	-1111.10828	-930.73383	928.25726	-875.1109	-1085.3418	953.3576	-1071.45581	-1087.40771	968.56543	-921.69641	-908.84369	632.83588	-1164.80798	-840.16052	469.95587	-1122.82996	-852.93549	276.09683	-1121.62512	-827.75079	67.43462	-1082.33105	-862.10364	29.68534	-1042.4812	-679.1601	46.76011	-1061.58704	-1033.85278	643.43945	-839.11536	-1059.40759	466.02087	-873.54578	-1146.18152	293.05322	-873.89752	-1211.62524	84.97603	-925.05182	-1256.27319	59.8809	-978.72266	-1074.11743	30.03246	-933.117	-957.14471	1669.47363	-1015.12781	NaN	NaN	NaN	NaN	NaN	NaN	NaN	NaN	NaN	NaN	NaN	NaN	NaN	NaN	NaN
78	0.77	-862.00635	1607.21338	-1060.95386	-870.57751	1615.9856	-928.06293	-989.67651	1562.57935	-1062.72412	-993.85785	1571.43726	-931.51642	-1021.77905	1410.1853	-994.23273	-1074.10474	1100.88086	-997.5849	-903.8468	1327.84546	-996.07959	-868.78857	1160.33862	-1000.7569	-1078.09558	1240.00012	-892.1377	-951.71326	1368.13672	-1151.88806	-995.44226	1174.89087	-1225.18921	-1007.66296	1052.69861	-1240.9895	-993.0788	923.34479	-1243.91138	-982.0788	803.48779	-1215.97656	-1008.2785	811.43073	-1264.43689	-997.0694	727.79846	-1257.3645	-940.89471	1355.82568	-836.72797	-896.31287	1146.49194	-749.30786	-852.12158	1044.85718	-729.10242	-793.39349	921.60315	-721.65625	-736.1347	839.78302	-755.30066	-761.09552	826.88708	-709.64874	-714.15491	770.12781	-716.49933	-912.71484	927.46979	-1111.47986	-922.75903	927.29364	-875.33368	-1076.51208	952.00989	-1072.43665	-1079.3302	967.33936	-922.67029	-902.24548	630.62219	-1164.74268	-833.29645	468.04449	-1121.3927	-838.98645	274.87711	-1120.90015	-804.73895	67.34772	-1082.87073	-837.88562	29.53144	-1042.55005	-655.02533	47.6184	-1063.21106	-1027.49622	643.06738	-839.01538	-1054.12939	465.69247	-873.21167	-1142.99963	293.64154	-873.63654	-1211.0365	86.28749	-924.70508	-1255.70471	61.58846	-978.4519	-1073.97864	29.93334	-932.94922	-948.71381	1667.98389	-1015.38043	NaN	NaN	NaN	NaN	NaN	NaN	NaN	NaN	NaN	NaN	NaN	NaN	NaN	NaN	NaN
79	0.78	-853.31085	1605.87488	-1061.55334	-861.79755	1614.72363	-928.65588	-980.8916	1561.09595	-1063.27905	-985.00073	1570.00549	-932.02338	-1012.92523	1408.97388	-994.74054	-1065.78796	1099.73389	-998.31079	-895.14099	1326.28174	-996.30469	-860.42682	1158.77161	-1000.88757	-1069.94678	1239.1416	-892.64545	-942.74963	1366.44312	-1152.26404	-987.44177	1173.20581	-1224.81091	-1000.69934	1051.17004	-1240.3645	-986.67096	921.70044	-1243.30713	-975.62988	801.83875	-1215.35059	-1002.3692	809.83002	-1263.45129	-991.52307	726.11725	-1256.18579	-932.21936	1354.67078	-836.94769	-887.26178	1145.44373	-749.79675	-842.67053	1043.91504	-729.79034	-783.29028	920.9635	-722.73639	-725.76117	839.58661	-756.74603	-750.45557	826.37866	-711.06165	-703.11627	769.94397	-718.05249	-903.53784	926.15643	-1111.79468	-914.6897	926.28345	-875.62817	-1067.40759	950.61823	-1073.55164	-1071.08887	966.11328	-923.82013	-895.43463	628.43011	-1164.9895	-826.51965	466.09103	-1120.00354	-825.82648	273.74756	-1120.1969	-783.31647	67.516	-1083.50159	-815.17432	29.4362	-1042.66016	-632.63196	49.13446	-1064.87573	-1021.07074	642.84027	-838.95618	-1048.79175	465.50513	-872.79712	-1139.63428	294.29977	-873.34357	-1209.95178	87.76672	-924.20789	-1255.15771	63.56953	-978.04944	-1073.84973	29.87049	-932.77014	-939.75977	1666.70032	-1016.31818	NaN	NaN	NaN	NaN	NaN	NaN	NaN	NaN	NaN	NaN	NaN	NaN	NaN	NaN	NaN
